The abduction of beautiful Helen, wife of Spartan King Menelaus, by Paris of Troy triggers a long war.
 
http://www.imdb.com/title/tt0340477/

Subs: Dutch (srt).

Helena is getrouwd met de koning van Sparta, maar wordt hopeloos verliefd op Paris, een knappe Trojaanse prins. De minnaars vluchten samen naar Troje, waar koning Priamus hen onderdak biedt. Agamemnon, de meedogenloze broer van de koning van Sparta, zet zich in om Helena terug te halen en leidt het goed getrainde Spartaanse leger naar Troje. Na een belegering van tien jaar krijgen de Grieken met hun beroemde paard van Troje toegang tot de vesting. Dit is het begin van het beslissende gevecht dat uiteindelijk het lot van de twee rijken zal beslechten.
 
http://www.moviemeter.nl/film/21806

Ondertitels : Nederlands (srt).

General
Complete name                    : Helen of Troy-AC3-XviD-DVDRip 2003 TBS\Helen of Troy-AC3-XviD-DVDRip 2003.avi
Format                           : AVI
Format/Info                      : Audio Video Interleave
File size                        : 1.75 GiB
Duration                         : 2h 47mn
Overall bit rate                 : 1 500 Kbps
Writing application              : VirtualDubMod 1.5.4.1 (build 2178/release)
Writing library                  : VirtualDubMod build 2178/release

Video
ID                               : 0
Format                           : MPEG-4 Visual
Format profile                   : Simple@L3
Format settings, BVOP            : No
Format settings, QPel            : No
Format settings, GMC             : No warppoints
Format settings, Matrix          : Default (H.263)
Codec ID                         : XVID
Codec ID/Hint                    : XviD
Duration                         : 2h 47mn
Bit rate                         : 1 106 Kbps
Width                            : 720 pixels
Height                           : 400 pixels
Display aspect ratio             : 16:9
Frame rate                       : 25.000 fps
Resolution                       : 8 bits
Colorimetry                      : 4:2:0
Scan type                        : Progressive
Bits/(Pixel*Frame)               : 0.154
Stream size                      : 1.29 GiB (74%)
Writing library                  : XviD 1.1.2 (UTC 2006-11-01)

Audio
ID                               : 1
Format                           : AC-3
Format/Info                      : Audio Coding 3
Codec ID                         : 2000
Duration                         : 2h 47mn
Bit rate mode                    : Constant
Bit rate                         : 384 Kbps
Channel(s)                       : 6 channels
Channel positions                : Front: L C R, Surround: L R, LFE
Sampling rate                    : 48.0 KHz
Stream size                      : 460 MiB (26%)
Alignment                        : Split accross interleaves
Interleave, duration             : 40 ms (1.00 video frame)
Interleave, preload duration     : 500 ms

Blackbeard  TBS.